<mxfile host="Electron" agent="Mozilla/5.0 (Macintosh; Intel Mac OS X 10_15_7) AppleWebKit/537.36 (KHTML, like Gecko) draw.io/24.7.5 Chrome/126.0.6478.183 Electron/31.3.0 Safari/537.36" version="24.7.5">
  <diagram name="Page-1" id="jb826tk08Qy4cRv-M_Rh">
    <mxGraphModel dx="954" dy="622" grid="1" gridSize="10" guides="1" tooltips="1" connect="1" arrows="1" fold="1" page="1" pageScale="1" pageWidth="827" pageHeight="1169" math="0" shadow="0">
      <root>
        <mxCell id="0" />
        <mxCell id="1" parent="0" />
        <mxCell id="VUpTRFzUVH3JHkkP5Kgd-1" value="Server" style="rounded=0;whiteSpace=wrap;html=1;" vertex="1" parent="1">
          <mxGeometry x="230" y="110" width="220" height="80" as="geometry" />
        </mxCell>
        <mxCell id="VUpTRFzUVH3JHkkP5Kgd-2" value="Vineyard" style="ellipse;whiteSpace=wrap;html=1;aspect=fixed;" vertex="1" parent="1">
          <mxGeometry x="175" y="340" width="80" height="80" as="geometry" />
        </mxCell>
        <mxCell id="VUpTRFzUVH3JHkkP5Kgd-3" value="Distiller" style="ellipse;whiteSpace=wrap;html=1;aspect=fixed;" vertex="1" parent="1">
          <mxGeometry x="315" y="340" width="80" height="80" as="geometry" />
        </mxCell>
        <mxCell id="VUpTRFzUVH3JHkkP5Kgd-4" value="Merchant" style="ellipse;whiteSpace=wrap;html=1;aspect=fixed;" vertex="1" parent="1">
          <mxGeometry x="455" y="340" width="80" height="80" as="geometry" />
        </mxCell>
        <mxCell id="VUpTRFzUVH3JHkkP5Kgd-5" value="Client" style="rounded=0;whiteSpace=wrap;html=1;" vertex="1" parent="1">
          <mxGeometry x="180" y="320" width="70" height="30" as="geometry" />
        </mxCell>
        <mxCell id="VUpTRFzUVH3JHkkP5Kgd-6" value="Client" style="rounded=0;whiteSpace=wrap;html=1;" vertex="1" parent="1">
          <mxGeometry x="320" y="320" width="70" height="30" as="geometry" />
        </mxCell>
        <mxCell id="VUpTRFzUVH3JHkkP5Kgd-7" value="Client" style="rounded=0;whiteSpace=wrap;html=1;" vertex="1" parent="1">
          <mxGeometry x="455" y="320" width="70" height="30" as="geometry" />
        </mxCell>
        <mxCell id="VUpTRFzUVH3JHkkP5Kgd-8" value="" style="endArrow=classic;startArrow=classic;html=1;rounded=0;entryX=0.25;entryY=1;entryDx=0;entryDy=0;exitX=0.5;exitY=0;exitDx=0;exitDy=0;" edge="1" parent="1" source="VUpTRFzUVH3JHkkP5Kgd-5" target="VUpTRFzUVH3JHkkP5Kgd-1">
          <mxGeometry width="50" height="50" relative="1" as="geometry">
            <mxPoint x="390" y="350" as="sourcePoint" />
            <mxPoint x="440" y="300" as="targetPoint" />
          </mxGeometry>
        </mxCell>
        <mxCell id="VUpTRFzUVH3JHkkP5Kgd-9" value="" style="endArrow=classic;startArrow=classic;html=1;rounded=0;entryX=0.5;entryY=1;entryDx=0;entryDy=0;exitX=0.5;exitY=0;exitDx=0;exitDy=0;" edge="1" parent="1" source="VUpTRFzUVH3JHkkP5Kgd-6" target="VUpTRFzUVH3JHkkP5Kgd-1">
          <mxGeometry width="50" height="50" relative="1" as="geometry">
            <mxPoint x="225" y="330" as="sourcePoint" />
            <mxPoint x="295" y="200" as="targetPoint" />
          </mxGeometry>
        </mxCell>
        <mxCell id="VUpTRFzUVH3JHkkP5Kgd-10" value="" style="endArrow=classic;startArrow=classic;html=1;rounded=0;entryX=0.75;entryY=1;entryDx=0;entryDy=0;exitX=0.5;exitY=0;exitDx=0;exitDy=0;" edge="1" parent="1" source="VUpTRFzUVH3JHkkP5Kgd-7" target="VUpTRFzUVH3JHkkP5Kgd-1">
          <mxGeometry width="50" height="50" relative="1" as="geometry">
            <mxPoint x="235" y="340" as="sourcePoint" />
            <mxPoint x="305" y="210" as="targetPoint" />
          </mxGeometry>
        </mxCell>
        <mxCell id="VUpTRFzUVH3JHkkP5Kgd-14" value="" style="edgeStyle=orthogonalEdgeStyle;rounded=0;orthogonalLoop=1;jettySize=auto;html=1;" edge="1" parent="1" source="VUpTRFzUVH3JHkkP5Kgd-11" target="VUpTRFzUVH3JHkkP5Kgd-2">
          <mxGeometry relative="1" as="geometry" />
        </mxCell>
        <mxCell id="VUpTRFzUVH3JHkkP5Kgd-11" value="User" style="shape=umlActor;verticalLabelPosition=bottom;verticalAlign=top;html=1;outlineConnect=0;" vertex="1" parent="1">
          <mxGeometry x="200" y="470" width="30" height="60" as="geometry" />
        </mxCell>
        <mxCell id="VUpTRFzUVH3JHkkP5Kgd-20" value="" style="edgeStyle=orthogonalEdgeStyle;rounded=0;orthogonalLoop=1;jettySize=auto;html=1;" edge="1" parent="1" source="VUpTRFzUVH3JHkkP5Kgd-19" target="VUpTRFzUVH3JHkkP5Kgd-3">
          <mxGeometry relative="1" as="geometry" />
        </mxCell>
        <mxCell id="VUpTRFzUVH3JHkkP5Kgd-19" value="User" style="shape=umlActor;verticalLabelPosition=bottom;verticalAlign=top;html=1;outlineConnect=0;" vertex="1" parent="1">
          <mxGeometry x="340" y="470" width="30" height="60" as="geometry" />
        </mxCell>
        <mxCell id="VUpTRFzUVH3JHkkP5Kgd-22" value="" style="edgeStyle=orthogonalEdgeStyle;rounded=0;orthogonalLoop=1;jettySize=auto;html=1;" edge="1" parent="1" source="VUpTRFzUVH3JHkkP5Kgd-21" target="VUpTRFzUVH3JHkkP5Kgd-4">
          <mxGeometry relative="1" as="geometry" />
        </mxCell>
        <mxCell id="VUpTRFzUVH3JHkkP5Kgd-21" value="User" style="shape=umlActor;verticalLabelPosition=bottom;verticalAlign=top;html=1;outlineConnect=0;" vertex="1" parent="1">
          <mxGeometry x="480" y="470" width="30" height="60" as="geometry" />
        </mxCell>
      </root>
    </mxGraphModel>
  </diagram>
</mxfile>
